<?xml version="1.0" encoding="UTF-8"?>
<svg id="Layer_1" data-name="Layer 1" xmlns="http://www.w3.org/2000/svg" viewBox="0 0 1080 1080">
  <defs>
    <style>
      .cls-1 {
        fill: #f2ffe7;
      }

      .cls-2 {
        fill: #1c1a41;
      }
    </style>
  </defs>
  <path class="cls-2" d="m1042.43,248.83L557.39,4.31c-11.39-5.74-23.39-5.74-34.78,0L37.56,248.83C15.41,260,0,297.8,0,340.98v398.03c0,43.18,15.41,80.98,37.56,92.15l485.04,244.52c11.39,5.74,23.39,5.74,34.78,0l485.04-244.52c22.16-11.17,37.57-48.97,37.57-92.15v-398.03c0-43.18-15.41-80.98-37.57-92.15Z"/>
  <g>
    <path class="cls-1" d="m356.01,681l-226.94-140.33v125.22H48.5v-266.89l226.95,140.33v-125.22h80.56v266.89Z"/>
    <path class="cls-1" d="m502.96,481.25v45.32h155.77v63.79h-155.77v75.53h-80.57v-251.78h275.95v67.13h-195.38Z"/>
    <path class="cls-1" d="m836.12,481.25v28.54h155.77v60.43h-155.77v28.53h195.05v67.15h-275.63v-251.78h275.95v67.13h-195.38Z"/>
  </g>
</svg>