<?xml version="1.0" encoding="UTF-8"?>
<svg id="Layer_1" data-name="Layer 1" xmlns="http://www.w3.org/2000/svg" viewBox="0 0 1080 1080">
  <defs>
    <style>
      .cls-1 {
        fill: #2b002c;
      }
    </style>
  </defs>
  <path class="cls-1" d="m0,572.8c0-21.09,0-42.18,0-63.27.64-3.4,1.65-6.78,1.87-10.2,2.63-40.49,10.43-80.04,22.54-118.68C113.5,96.45,414.81-62.07,699.4,25.39c269.28,82.75,431.77,361.94,366,636.46-47.21,197.05-171.38,327.53-362.7,393.33-30.89,10.62-63.7,15.67-96.42,23.48v-425.25h129.18c6.54-50.54,12.92-99.85,19.49-150.6h-148.91c0-37.5-.56-73.66.36-109.79.26-10.19,3.33-21.02,7.78-30.26,9.78-20.3,28.99-26.98,49.7-28.02,28.05-1.41,56.19-1.06,84.29-1.51,3.7-.06,7.4-.37,11.74-.59,0-43.34.13-85.47-.32-127.6-.03-2.48-4.63-6.95-7.26-7.06-42.8-1.9-85.66-5.19-128.42-4.16-40.8.99-78.58,14.44-110.38,41.36-41.56,35.18-59.48,81.92-62.29,134.63-2.13,39.96-1.17,80.09-1.57,120.14-.04,4.1,0,8.19,0,13.47h-129.2v150.84h128.66v417.69c-1.53.15-2.57.48-3.52.32-47.34-8.12-92.65-22.8-135.93-43.41-81.42-38.78-149.47-94.15-203.23-166.69-50.35-67.95-83.57-143.46-98.01-226.92-3.58-20.68-5.66-41.61-8.42-62.43Z"/>
</svg>