<?xml version="1.0" encoding="UTF-8"?>
<svg id="Layer_1" data-name="Layer 1" xmlns="http://www.w3.org/2000/svg" viewBox="0 0 1080 1080">
  <defs>
    <style>
      .cls-1 {
        fill: #2b002c;
      }
    </style>
  </defs>
  <path class="cls-1" d="m540.45-.06c297.88.18,539.74,242.46,539.55,540.5-.18,297.86-242.58,539.86-540.5,539.62C241.31,1079.82-.43,837.21,0,538.64.43,241.39,242.84-.24,540.45-.06Zm-.3,878.39c0-.29.01-.57.02-.86,20.8,0,41.64.7,62.41-.15,38.99-1.6,78.26-1.74,116.85-6.77,56.35-7.35,100.19-36.55,129.17-86.2,18.15-31.1,25.64-65.51,26.38-100.96,1.51-73.08,2.38-146.19,1.98-219.28-.19-34.77-1.71-69.82-6.48-104.22-7.52-54.31-35.14-97.27-82.34-126.36-31.69-19.54-67.1-27.73-103.72-28.53-73.34-1.6-146.72-2.41-220.08-2.03-34.76.18-69.78,1.81-104.21,6.38-73.43,9.75-128.88,61.03-147.38,132.67-8.45,32.73-9.2,66.25-9.63,99.65-.76,58.48-1.11,116.98-.18,175.45.55,34.22,1.93,68.67,6.47,102.54,6.85,51.11,31.99,92.53,74.98,122,34.3,23.52,73.4,32.12,114.12,33.58,47.19,1.69,94.42,2.11,141.63,3.08Z"/>
  <path class="cls-1" d="m540.85,262.36c48.06,1.12,96.13,1.88,144.18,3.53,23.49.81,46.43,5.58,67.27,17.06,32.42,17.86,52.47,45.81,57.24,81.98,4.58,34.71,6.07,69.97,6.66,105.02.96,57.36.77,114.76-.32,172.12-.49,25.75-1.85,51.96-7.1,77.06-11.15,53.38-49.12,86.8-104.48,92.63-33.19,3.49-66.75,4.22-100.17,4.62-53.98.65-107.99.87-161.95-.41-28.25-.67-56.99-2.23-84.49-8.15-48.84-10.5-78.08-43.24-87.22-91.91-4.59-24.43-6.29-49.72-6.35-74.63-.19-81.83.59-163.66,1.95-245.48.25-15.24,3.29-30.9,7.8-45.51,15.38-49.85,51.48-76.79,101.84-81.82,42.97-4.29,86.43-3.7,129.68-5.08,11.8-.38,23.62-.06,35.43-.06l.02-.98Zm-1.9,104.41c-95.65.53-172.73,78.65-172.16,174.46.57,95.22,78.48,172.32,173.82,172,95.64-.31,173.08-78.42,172.59-174.08-.48-95.74-78.5-172.92-174.26-172.39Zm181.6,33.51c22.06-.26,40.1-18.44,40.09-40.43,0-22.17-18.86-40.84-40.92-40.53-22.31.31-40.49,19.1-40.03,41.36.46,22.06,18.83,39.86,40.86,39.6Z"/>
  <path class="cls-1" d="m652.38,540.09c-.07,62.13-49.88,112.04-112.08,112.33-62.27.28-112.87-50.25-112.69-112.55.18-62.54,50.68-112.75,112.93-112.29,62.32.47,111.91,50.36,111.84,112.51Z"/>
</svg>