<?xml version="1.0" encoding="UTF-8"?>
<svg id="Layer_1" data-name="Layer 1" xmlns="http://www.w3.org/2000/svg" viewBox="0 0 1080 1080">
  <defs>
    <style>
      .cls-1 {
        fill: #2b002c;
      }
    </style>
  </defs>
  <path class="cls-1" d="m1080,506.21v67.5c-1.57,12.86-2.91,25.74-4.75,38.56-18.24,127.04-72.88,235.93-167.63,322.45-136.69,124.81-297.8,169.32-479.08,133.17-130.89-26.1-237.17-94.99-317.92-201.12C20.57,748.43-13.95,614.2,5.04,466.99c13.9-107.75,57.91-202.74,130.1-283.97C219.03,88.63,323.3,29.82,447.99,8.11c19.31-3.36,38.83-5.47,58.25-8.15,22.5,0,45,0,67.5,0,2.7.59,5.38,1.52,8.11,1.73,81.5,6.09,158.07,28.95,228.17,70.84,143.04,85.48,230.89,210.22,261.69,374.38,3.68,19.6,5.57,39.53,8.28,59.3Zm-257.67,308.01c.23-2.58.46-3.96.46-5.33-.03-72.41.45-144.83-.51-217.23-.24-18.04-3.44-36.49-8.24-53.93-14.38-52.21-47.43-86.64-101.74-96.29-55.01-9.78-102.66,3.11-136.3,51.5-.83,1.19-2.13,2.05-4.64,4.4v-49.42h-121.33v366.28h121.67c0-4.26,0-8.02,0-11.78,0-65.03.16-130.06-.06-195.09-.07-21.16,6.6-39.35,21.73-54.11,35.43-34.58,90.69-19.57,102.6,28.28,3.18,12.79,4.2,26.38,4.29,39.62.44,60.46.19,120.92.19,181.38,0,3.75,0,7.5,0,11.72h121.88ZM259.88,447.64v366.33h121.23v-366.33h-121.23Zm60.25-50.82c39.57-.03,66.99-23.62,69.51-59.81,2.32-33.46-21.41-61.03-57.16-66.4-34.46-5.18-66.84,12.22-76.97,41.35-15.22,43.79,16.07,84.89,64.62,84.86Z"/>
</svg>