<?xml version="1.0" encoding="UTF-8"?>
<svg id="Layer_1" data-name="Layer 1" xmlns="http://www.w3.org/2000/svg" viewBox="0 0 1920 1080">
  <defs>
    <style>
      .cls-1 {
        fill: #f5f5f5;
      }

      .cls-2 {
        fill: #a0303f;
      }
    </style>
  </defs>
  <path class="cls-2" d="m1775.22,279.57L988.21,60.85c-18.48-5.14-37.95-5.14-56.43,0L144.78,279.57c-35.95,9.99-60.95,43.8-60.95,82.42v356.02c0,38.63,25,72.43,60.95,82.42l787.01,218.71c18.49,5.14,37.95,5.14,56.43,0l787.01-218.71c35.95-9.99,60.95-43.8,60.95-82.42v-356.02c0-38.63-25-72.43-60.95-82.42Z"/>
  <g>
    <g>
      <path class="cls-1" d="m627.27,808.91l-3.09.41-6.41,26.26h-6.92l-5.7-18.96h-.17l-5.71,18.96h-6.89l-6.44-26.26-3.09-.41v-5.18h13.9v5.18l-3.26.65,2.89,14.57h.17l5.73-20.4h5.56l5.79,20.46h.17l2.87-14.6-3.29-.68v-5.18h13.9v5.18Z"/>
      <path class="cls-1" d="m646.25,836.2c-4.42,0-7.96-1.47-10.61-4.42-2.64-2.94-3.97-6.68-3.97-11.22v-1.18c0-4.73,1.25-8.63,3.76-11.69,2.51-3.06,5.87-4.58,10.09-4.56,4.14,0,7.35,1.3,9.64,3.89,2.28,2.59,3.43,6.09,3.43,10.51v4.68h-18.32l-.06.18c.15,2.1.82,3.83,2.03,5.18,1.2,1.35,2.83,2.03,4.89,2.03,1.84,0,3.36-.19,4.57-.57s2.53-.99,3.97-1.81l2.24,5.3c-1.27,1.04-2.91,1.91-4.92,2.62s-4.26,1.06-6.74,1.06Zm-.74-26.44c-1.53,0-2.74.61-3.63,1.83s-1.44,2.82-1.64,4.8l.08.15h10.16v-.77c0-1.83-.41-3.28-1.24-4.37-.82-1.09-2.07-1.63-3.73-1.63Z"/>
      <path class="cls-1" d="m693.63,820.54c0,4.75-1.02,8.55-3.07,11.39-2.04,2.85-4.99,4.27-8.85,4.27-1.8,0-3.36-.39-4.68-1.16-1.32-.77-2.44-1.9-3.34-3.37l-.59,3.92h-7.15v-39.86l-4.4-.88v-5.18h12.65v17.46c.89-1.27,1.95-2.26,3.19-2.94,1.24-.69,2.66-1.03,4.27-1.03,3.89,0,6.87,1.52,8.9,4.58,2.04,3.05,3.07,7.12,3.07,12.2v.62Zm-8.25-.62c0-3.1-.44-5.56-1.32-7.37-.88-1.82-2.38-2.72-4.5-2.72-1.28,0-2.37.28-3.26.84s-1.59,1.36-2.1,2.4v13.45c.51.98,1.21,1.73,2.11,2.24.89.51,2,.77,3.3.77,2.14,0,3.63-.78,4.48-2.34.85-1.56,1.28-3.77,1.28-6.64v-.62Z"/>
      <path class="cls-1" d="m734.57,831.7c-.97,1.47-2.1,2.59-3.41,3.36-1.32.77-2.81,1.15-4.5,1.15-3.78,0-6.72-1.43-8.81-4.3s-3.13-6.65-3.13-11.36v-.62c0-5.03,1.05-9.08,3.15-12.16,2.1-3.08,5.05-4.62,8.85-4.62,1.53,0,2.91.35,4.14,1.05s2.31,1.68,3.23,2.96v-11.42l-4.42-.88v-5.18h12.71v39.89l3.97.88v5.15h-11.15l-.62-3.89Zm-11.57-11.16c0,2.79.45,4.98,1.34,6.58.9,1.6,2.37,2.4,4.42,2.4,1.21,0,2.26-.26,3.14-.77s1.62-1.25,2.18-2.21v-13.51c-.57-1.02-1.29-1.81-2.17-2.37-.88-.56-1.92-.84-3.11-.84-2.03,0-3.5.93-4.42,2.8-.93,1.86-1.39,4.3-1.39,7.3v.62Z"/>
      <path class="cls-1" d="m765.12,836.2c-4.42,0-7.96-1.47-10.61-4.42-2.64-2.94-3.97-6.68-3.97-11.22v-1.18c0-4.73,1.25-8.63,3.76-11.69,2.51-3.06,5.87-4.58,10.09-4.56,4.14,0,7.35,1.3,9.64,3.89,2.28,2.59,3.43,6.09,3.43,10.51v4.68h-18.32l-.06.18c.15,2.1.82,3.83,2.03,5.18s2.83,2.03,4.89,2.03c1.84,0,3.36-.19,4.57-.57s2.53-.99,3.97-1.81l2.24,5.3c-1.27,1.04-2.91,1.91-4.92,2.62s-4.26,1.06-6.74,1.06Zm-.74-26.44c-1.53,0-2.74.61-3.63,1.83s-1.44,2.82-1.64,4.8l.08.15h10.16v-.77c0-1.83-.41-3.28-1.24-4.37-.82-1.09-2.07-1.63-3.73-1.63Z"/>
      <path class="cls-1" d="m795.48,808.91l-2.9.56,4.06,14.25.54,3h.17l.59-3,4-14.22-2.95-.59v-5.18h13.93v5.18l-2.67.44-9.05,26.23h-7.91l-9.08-26.23-2.67-.44v-5.18h13.93v5.18Z"/>
      <path class="cls-1" d="m831.34,836.2c-4.42,0-7.96-1.47-10.61-4.42-2.64-2.94-3.97-6.68-3.97-11.22v-1.18c0-4.73,1.25-8.63,3.76-11.69,2.51-3.06,5.87-4.58,10.09-4.56,4.14,0,7.35,1.3,9.64,3.89,2.28,2.59,3.43,6.09,3.43,10.51v4.68h-18.32l-.06.18c.15,2.1.82,3.83,2.03,5.18s2.83,2.03,4.89,2.03c1.84,0,3.36-.19,4.57-.57s2.53-.99,3.97-1.81l2.24,5.3c-1.27,1.04-2.91,1.91-4.92,2.62s-4.26,1.06-6.74,1.06Zm-.74-26.44c-1.53,0-2.74.61-3.63,1.83s-1.44,2.82-1.64,4.8l.08.15h10.16v-.77c0-1.83-.41-3.28-1.24-4.37-.82-1.09-2.07-1.63-3.73-1.63Z"/>
      <path class="cls-1" d="m848.17,794.84v-5.18h12.71v39.89l4,.88v5.15h-16.29v-5.15l4-.88v-33.83l-4.43-.88Z"/>
      <path class="cls-1" d="m868.46,819.36c0-4.75,1.28-8.64,3.84-11.67,2.56-3.03,6.11-4.55,10.63-4.55s8.08,1.51,10.65,4.53c2.56,3.02,3.84,6.92,3.84,11.69v.62c0,4.79-1.28,8.69-3.84,11.7-2.57,3.01-6.1,4.52-10.6,4.52s-8.12-1.51-10.68-4.52c-2.56-3.01-3.84-6.91-3.84-11.7v-.62Zm8.28.62c0,2.91.49,5.23,1.48,6.99s2.57,2.63,4.76,2.63,3.7-.88,4.69-2.65c1-1.77,1.49-4.09,1.49-6.98v-.62c0-2.83-.5-5.13-1.5-6.92s-2.58-2.68-4.73-2.68-3.73.89-4.71,2.68-1.48,4.09-1.48,6.92v.62Z"/>
      <path class="cls-1" d="m901.85,808.91v-5.18h12.02l.4,3.71c.91-1.37,1.99-2.43,3.26-3.18,1.27-.74,2.74-1.12,4.42-1.12,3.8,0,6.75,1.54,8.85,4.62,2.1,3.08,3.15,7.13,3.15,12.16v.62c0,4.71-1.05,8.5-3.15,11.36-2.1,2.86-5.03,4.3-8.79,4.3-1.61,0-3.04-.31-4.29-.93s-2.31-1.52-3.2-2.72v9.21l4,.88v5.18h-16.25v-5.18l4-.88v-31.97l-4.42-.88Zm23.82,11.01c0-3-.48-5.44-1.44-7.3-.97-1.86-2.44-2.8-4.43-2.8-1.25,0-2.31.26-3.19.79s-1.57,1.29-2.08,2.27v13.95c.51.9,1.21,1.59,2.08,2.06s1.96.71,3.25.71c2,0,3.47-.82,4.41-2.44s1.4-3.84,1.4-6.62v-.62Z"/>
      <path class="cls-1" d="m953.79,836.2c-4.42,0-7.96-1.47-10.61-4.42-2.64-2.94-3.97-6.68-3.97-11.22v-1.18c0-4.73,1.25-8.63,3.76-11.69,2.51-3.06,5.87-4.58,10.09-4.56,4.14,0,7.35,1.3,9.64,3.89,2.28,2.59,3.43,6.09,3.43,10.51v4.68h-18.32l-.06.18c.15,2.1.82,3.83,2.03,5.18s2.83,2.03,4.89,2.03c1.84,0,3.36-.19,4.57-.57s2.53-.99,3.97-1.81l2.24,5.3c-1.27,1.04-2.91,1.91-4.92,2.62s-4.26,1.06-6.74,1.06Zm-.74-26.44c-1.53,0-2.74.61-3.63,1.83s-1.44,2.82-1.64,4.8l.08.15h10.16v-.77c0-1.83-.41-3.28-1.24-4.37-.82-1.09-2.07-1.63-3.73-1.63Z"/>
      <path class="cls-1" d="m972.12,830.43l3.97-.88v-19.75l-4.4-.88v-5.18h12.11l.37,4.65c.72-1.65,1.64-2.94,2.78-3.86s2.45-1.38,3.94-1.38c.44,0,.89.04,1.37.1.48.07.89.15,1.21.25l-.88,7.83-3.4-.09c-1.21,0-2.21.24-3.01.74s-1.4,1.19-1.81,2.09v15.49l3.97.88v5.15h-16.22v-5.15Z"/>
      <path class="cls-1" d="m1015.33,820.57h-16v-6.62h16v6.62Z"/>
      <path class="cls-1" d="m1021.71,830.43l4-.88v-19.75l-4.42-.88v-5.18h12.71v25.82l3.97.88v5.15h-16.26v-5.15Zm12.28-34.33h-8.28v-6.45h8.28v6.45Z"/>
      <path class="cls-1" d="m1041.69,830.43l3.97-.88v-19.75l-4.4-.88v-5.18h12.11l.37,4.56c1.02-1.63,2.28-2.89,3.77-3.8,1.49-.9,3.17-1.35,5.02-1.35,3.1,0,5.52,1.01,7.27,3.03,1.74,2.02,2.61,5.19,2.61,9.51v13.87l3.97.88v5.15h-15.83v-5.15l3.54-.88v-13.84c0-2.14-.41-3.66-1.25-4.55-.83-.89-2.09-1.34-3.77-1.34-1.1,0-2.08.23-2.95.69-.87.46-1.6,1.11-2.18,1.96v17.07l3.34.88v5.15h-15.6v-5.15Z"/>
      <path class="cls-1" d="m1098.4,820.57h-16v-6.62h16v6.62Z"/>
      <path class="cls-1" d="m1117.27,795.93v7.8h5.39v6.04h-5.39v16.22c0,1.24.25,2.12.74,2.65.49.53,1.15.79,1.98.79.57,0,1.07-.02,1.49-.07.43-.05.91-.13,1.44-.25l.71,6.21c-.92.29-1.84.52-2.75.66s-1.89.22-2.95.22c-2.86,0-5.06-.82-6.59-2.44-1.54-1.63-2.31-4.21-2.31-7.74v-16.25h-4.51v-6.04h4.51v-7.8h8.25Z"/>
      <path class="cls-1" d="m1128.79,830.43l3.97-.88v-19.75l-4.4-.88v-5.18h12.11l.37,4.65c.72-1.65,1.64-2.94,2.78-3.86s2.45-1.38,3.94-1.38c.44,0,.89.04,1.37.1.48.07.89.15,1.21.25l-.88,7.83-3.4-.09c-1.21,0-2.21.24-3.01.74s-1.4,1.19-1.81,2.09v15.49l3.97.88v5.15h-16.22v-5.15Z"/>
      <path class="cls-1" d="m1173.05,835.58c-.23-.53-.42-1.07-.59-1.63s-.31-1.12-.4-1.69c-.98,1.18-2.18,2.13-3.59,2.86s-3.02,1.09-4.84,1.09c-3,0-5.39-.85-7.16-2.55s-2.65-4.01-2.65-6.93,1.15-5.29,3.46-6.92,5.69-2.44,10.16-2.44h4.23v-3.12c0-1.53-.42-2.72-1.28-3.56-.85-.84-2.11-1.27-3.77-1.27-.94,0-1.78.11-2.53.34-.74.23-1.33.49-1.78.81l-.54,3.41h-6.24l.02-7.07c1.51-1.06,3.25-1.95,5.2-2.68,1.96-.73,4.09-1.09,6.4-1.09,3.8,0,6.89.97,9.26,2.9,2.37,1.93,3.56,4.69,3.56,8.26v13.16c0,.49,0,.95.02,1.38,0,.43.04.84.1,1.24l2.52.35v5.15h-9.56Zm-7.18-5.74c1.25,0,2.38-.28,3.4-.84,1.02-.56,1.81-1.26,2.38-2.1v-4.86h-4.23c-1.76,0-3.09.43-4,1.28s-1.37,1.88-1.37,3.08c0,1.08.34,1.92,1.01,2.53s1.61.91,2.8.91Z"/>
      <path class="cls-1" d="m1186.61,830.43l4-.88v-19.75l-4.42-.88v-5.18h12.71v25.82l3.97.88v5.15h-16.26v-5.15Zm12.28-34.33h-8.28v-6.45h8.28v6.45Z"/>
      <path class="cls-1" d="m1206.59,830.43l3.97-.88v-19.75l-4.4-.88v-5.18h12.11l.37,4.56c1.02-1.63,2.28-2.89,3.77-3.8,1.49-.9,3.17-1.35,5.02-1.35,3.1,0,5.52,1.01,7.27,3.03,1.74,2.02,2.61,5.19,2.61,9.51v13.87l3.97.88v5.15h-15.83v-5.15l3.54-.88v-13.84c0-2.14-.41-3.66-1.25-4.55-.83-.89-2.09-1.34-3.77-1.34-1.1,0-2.08.23-2.95.69-.87.46-1.6,1.11-2.18,1.96v17.07l3.34.88v5.15h-15.6v-5.15Z"/>
      <path class="cls-1" d="m1245.12,830.43l4-.88v-19.75l-4.42-.88v-5.18h12.71v25.82l3.97.88v5.15h-16.26v-5.15Zm12.28-34.33h-8.28v-6.45h8.28v6.45Z"/>
      <path class="cls-1" d="m1265.09,830.43l3.97-.88v-19.75l-4.4-.88v-5.18h12.11l.37,4.56c1.02-1.63,2.28-2.89,3.77-3.8,1.49-.9,3.17-1.35,5.02-1.35,3.1,0,5.52,1.01,7.27,3.03,1.74,2.02,2.61,5.19,2.61,9.51v13.87l3.97.88v5.15h-15.83v-5.15l3.54-.88v-13.84c0-2.14-.41-3.66-1.25-4.55-.83-.89-2.09-1.34-3.77-1.34-1.1,0-2.08.23-2.95.69-.87.46-1.6,1.11-2.18,1.96v17.07l3.34.88v5.15h-15.6v-5.15Z"/>
      <path class="cls-1" d="m1304.11,819.92c0-5.03,1.05-9.08,3.16-12.16,2.11-3.08,5.06-4.62,8.87-4.62,1.72,0,3.23.4,4.54,1.19,1.3.79,2.42,1.93,3.34,3.4l.59-4h7.21v30.91c0,4.2-1.27,7.55-3.82,10.05s-6.04,3.75-10.48,3.75c-1.55,0-3.2-.22-4.93-.66-1.74-.44-3.35-1.05-4.82-1.81l1.53-6.04c1.32.59,2.64,1.05,3.97,1.4s2.73.52,4.2.52c2.03,0,3.54-.64,4.54-1.91s1.51-3.05,1.51-5.33v-2.09c-.91,1.2-1.98,2.11-3.21,2.74s-2.64.94-4.23.94c-3.76,0-6.7-1.44-8.81-4.31-2.11-2.88-3.16-6.66-3.16-11.35v-.62Zm8.28.62c0,2.79.45,4.98,1.36,6.58.91,1.6,2.38,2.4,4.43,2.4,1.27,0,2.34-.24,3.22-.72.88-.48,1.58-1.18,2.11-2.1v-13.84c-.53-.96-1.24-1.71-2.11-2.24-.88-.53-1.94-.79-3.17-.79-2.02,0-3.5.93-4.44,2.8-.94,1.86-1.4,4.3-1.4,7.3v.62Z"/>
    </g>
    <rect class="cls-1" x="481.78" y="817.78" width="69.24" height="6.03"/>
    <rect class="cls-1" x="1368.98" y="817.78" width="69.24" height="6.03"/>
  </g>
  <g>
    <path class="cls-1" d="m470.57,453.77l-118.22-73.1v65.23h-41.97v-139.04l118.23,73.1v-65.23h41.97v139.04Z"/>
    <path class="cls-1" d="m642.61,427.36h-93.73l-19.24,25.54-31.13-22.91,97.24-124.87,97.24,124.87-31.13,22.91-19.24-25.54Zm-25.01-33.23l-21.86-28.86-21.86,28.86h43.72Z"/>
    <path class="cls-1" d="m881.11,453.77l-118.22-73.1v65.23h-41.97v-139.04l118.23,73.1v-65.23h41.97v139.04Z"/>
    <path class="cls-1" d="m1076.93,434.53c-16.79,9.97-38.65,15.74-63.66,15.74-57.89,0-97.24-30.08-97.24-69.96s39.35-69.95,97.24-69.95c25.01,0,46.87,5.77,63.66,15.74l-17.66,30.78c-12.24-6.29-29.03-10.67-46-10.67-29.03,0-53.51,12.77-53.51,34.1s24.48,34.1,53.51,34.1c16.96,0,33.76-4.37,46-10.66l17.66,30.78Z"/>
    <path class="cls-1" d="m1209.81,398.68v47.22h-41.97v-47.22l-72.58-61.03,26.06-29.9,67.5,59.29,67.51-59.29,26.05,29.9-72.57,61.03Z"/>
    <path class="cls-1" d="m1448.46,349.71v23.61h81.15v33.23h-81.15v39.35h-41.97v-131.16h143.76v34.97h-101.78Z"/>
    <path class="cls-1" d="m1616.32,428.76c0,13.47-12.07,21.51-27.63,21.51s-27.63-8.05-27.63-21.51,12.06-21.51,27.63-21.51,27.63,8.04,27.63,21.51Z"/>
    <path class="cls-1" d="m293.68,590.87v14.87h81.15v31.48h-81.15v14.86h101.61v34.98h-143.59v-131.16h143.76v34.97h-101.78Z"/>
    <path class="cls-1" d="m435.64,554.15c19.77-1.4,43.72-2.63,68.21-2.63,72.23,0,94.79,23.09,94.79,48.09,0,16.62-10.32,31.48-32.01,40.93l29.2,29.73-31.65,23.79-40.4-43.89c-5.25.35-10.85.52-16.62.52-10.32,0-20.46-.35-29.56-.88v37.25h-41.97v-132.91Zm41.97,61.73c7.7.35,16.79.7,26.93.7,38.65,0,50.37-7.17,50.37-14.69s-11.72-14.52-50.37-14.52c-10.14,0-19.24.35-26.93.7v27.81Z"/>
    <path class="cls-1" d="m633.57,555.9h41.97v131.16h-41.97v-131.16Z"/>
    <path class="cls-1" d="m871.39,675.7c-16.79,9.97-38.65,15.74-63.66,15.74-57.89,0-97.24-30.08-97.24-69.96s39.35-69.95,97.24-69.95c25.01,0,46.87,5.77,63.66,15.74l-17.66,30.78c-12.24-6.29-29.03-10.67-46-10.67-29.03,0-53.51,12.77-53.51,34.1s24.48,34.1,53.51,34.1c16.96,0,33.76-4.37,46-10.66l17.66,30.78Z"/>
    <path class="cls-1" d="m976.1,640.2l-28.68,17.49v29.38h-41.97v-131.16h41.97v57.88l99.33-62.26,21.69,32.18-57.02,34.8,58.94,42.15-24.31,30.78-69.96-51.24Z"/>
    <path class="cls-1" d="m1111.77,641.59c17.14,8.05,40.57,14.87,70.83,14.87,16.26,0,34.8-2.1,34.8-8.92,0-5.42-11.72-6.29-27.98-7.34-60.16-3.85-87.97-14-87.97-42.68,0-33.58,36.38-46,78.17-46,27.46,0,52.12,5.77,69.95,13.47l-13.81,32.01c-14.52-5.95-36.03-10.49-58.76-10.49-17.32,0-33.58,2.1-33.58,8.92,0,4.89,8.22,6.12,22.91,6.99,52.47,2.97,93.04,10.14,93.04,43.19,0,30.78-32.88,45.83-78.87,45.83-40.05,0-66.11-9.44-83.95-17.84l15.21-32.01Z"/>
    <path class="cls-1" d="m1285.56,621.48c0-39.87,37.6-69.95,93.92-69.95s93.74,30.08,93.74,69.95-37.61,69.96-93.74,69.96-93.92-30.08-93.92-69.96Zm143.93,0c0-21.33-22.74-34.1-50.02-34.1s-50.19,12.77-50.19,34.1,22.73,34.1,50.19,34.1,50.02-12.94,50.02-34.1Z"/>
    <path class="cls-1" d="m1668.34,694.94l-118.22-73.1v65.23h-41.97v-139.04l118.23,73.1v-65.23h41.97v139.04Z"/>
  </g>
</svg>